<mxfile host="app.diagrams.net" modified="2020-09-10T01:36:46.702Z" agent="5.0 (Macintosh; Intel Mac OS X 10_14_6) AppleWebKit/537.36 (KHTML, like Gecko) Chrome/84.0.4147.135 Safari/537.36" etag="DiGdeFB3DwI04JTE9FRp" version="13.6.9" type="github">
  <diagram id="wfNF66AC-ER3PQNcAz9t" name="Page-1">
    <mxGraphModel dx="1351" dy="755" grid="1" gridSize="10" guides="1" tooltips="1" connect="1" arrows="1" fold="1" page="1" pageScale="1" pageWidth="827" pageHeight="1169" math="0" shadow="0">
      <root>
        <mxCell id="0" />
        <mxCell id="1" parent="0" />
        <mxCell id="xL_IqbiLZLGs2kssdecv-13" style="edgeStyle=orthogonalEdgeStyle;rounded=0;orthogonalLoop=1;jettySize=auto;html=1;exitX=0.5;exitY=1;exitDx=0;exitDy=0;entryX=0.5;entryY=0;entryDx=0;entryDy=0;entryPerimeter=0;" edge="1" parent="1" source="xL_IqbiLZLGs2kssdecv-1" target="xL_IqbiLZLGs2kssdecv-11">
          <mxGeometry relative="1" as="geometry" />
        </mxCell>
        <mxCell id="xL_IqbiLZLGs2kssdecv-1" value="Seed Node&lt;br&gt;1.0.0.1" style="rounded=0;whiteSpace=wrap;html=1;" vertex="1" parent="1">
          <mxGeometry x="190" y="530" width="120" height="60" as="geometry" />
        </mxCell>
        <mxCell id="xL_IqbiLZLGs2kssdecv-2" value="" style="endArrow=none;dashed=1;html=1;dashPattern=1 3;strokeWidth=2;" edge="1" parent="1">
          <mxGeometry width="50" height="50" relative="1" as="geometry">
            <mxPoint x="400" y="360" as="sourcePoint" />
            <mxPoint x="400" y="830" as="targetPoint" />
          </mxGeometry>
        </mxCell>
        <mxCell id="xL_IqbiLZLGs2kssdecv-3" value="云" style="text;html=1;align=center;verticalAlign=middle;resizable=0;points=[];autosize=1;" vertex="1" parent="1">
          <mxGeometry x="285" y="350" width="30" height="20" as="geometry" />
        </mxCell>
        <mxCell id="xL_IqbiLZLGs2kssdecv-4" value="兴义" style="text;html=1;align=center;verticalAlign=middle;resizable=0;points=[];autosize=1;" vertex="1" parent="1">
          <mxGeometry x="460" y="350" width="40" height="20" as="geometry" />
        </mxCell>
        <mxCell id="xL_IqbiLZLGs2kssdecv-15" style="edgeStyle=orthogonalEdgeStyle;rounded=0;orthogonalLoop=1;jettySize=auto;html=1;exitX=0.5;exitY=1;exitDx=0;exitDy=0;entryX=0.5;entryY=0;entryDx=0;entryDy=0;entryPerimeter=0;" edge="1" parent="1" source="xL_IqbiLZLGs2kssdecv-5" target="xL_IqbiLZLGs2kssdecv-11">
          <mxGeometry relative="1" as="geometry" />
        </mxCell>
        <mxCell id="xL_IqbiLZLGs2kssdecv-5" value="Seed Node&lt;br&gt;1.0.0.2" style="rounded=0;whiteSpace=wrap;html=1;" vertex="1" parent="1">
          <mxGeometry x="460" y="530" width="120" height="60" as="geometry" />
        </mxCell>
        <mxCell id="xL_IqbiLZLGs2kssdecv-21" style="edgeStyle=orthogonalEdgeStyle;rounded=0;orthogonalLoop=1;jettySize=auto;html=1;exitX=0.25;exitY=1;exitDx=0;exitDy=0;" edge="1" parent="1" source="xL_IqbiLZLGs2kssdecv-6" target="xL_IqbiLZLGs2kssdecv-22">
          <mxGeometry relative="1" as="geometry" />
        </mxCell>
        <mxCell id="xL_IqbiLZLGs2kssdecv-6" value="Client" style="rounded=0;whiteSpace=wrap;html=1;" vertex="1" parent="1">
          <mxGeometry x="190" y="400" width="120" height="60" as="geometry" />
        </mxCell>
        <mxCell id="xL_IqbiLZLGs2kssdecv-10" value="" style="endArrow=classic;startArrow=classic;html=1;exitX=1;exitY=0.5;exitDx=0;exitDy=0;entryX=0;entryY=0.5;entryDx=0;entryDy=0;" edge="1" parent="1" source="xL_IqbiLZLGs2kssdecv-1" target="xL_IqbiLZLGs2kssdecv-5">
          <mxGeometry width="50" height="50" relative="1" as="geometry">
            <mxPoint x="350" y="590" as="sourcePoint" />
            <mxPoint x="400" y="540" as="targetPoint" />
          </mxGeometry>
        </mxCell>
        <mxCell id="xL_IqbiLZLGs2kssdecv-11" value="DB" style="shape=cylinder3;whiteSpace=wrap;html=1;boundedLbl=1;backgroundOutline=1;size=15;" vertex="1" parent="1">
          <mxGeometry x="490" y="755" width="60" height="80" as="geometry" />
        </mxCell>
        <mxCell id="xL_IqbiLZLGs2kssdecv-19" style="edgeStyle=orthogonalEdgeStyle;rounded=0;orthogonalLoop=1;jettySize=auto;html=1;exitX=0.75;exitY=1;exitDx=0;exitDy=0;entryX=0.75;entryY=0;entryDx=0;entryDy=0;" edge="1" parent="1" source="xL_IqbiLZLGs2kssdecv-17" target="xL_IqbiLZLGs2kssdecv-1">
          <mxGeometry relative="1" as="geometry" />
        </mxCell>
        <mxCell id="xL_IqbiLZLGs2kssdecv-17" value="Client" style="rounded=0;whiteSpace=wrap;html=1;" vertex="1" parent="1">
          <mxGeometry x="460" y="400" width="120" height="60" as="geometry" />
        </mxCell>
        <mxCell id="xL_IqbiLZLGs2kssdecv-22" value="1.0.0.3" style="rounded=0;whiteSpace=wrap;html=1;" vertex="1" parent="1">
          <mxGeometry x="50" y="530" width="120" height="60" as="geometry" />
        </mxCell>
        <mxCell id="xL_IqbiLZLGs2kssdecv-23" value="gconfig-service&lt;br&gt;1.0.0.4" style="rounded=0;whiteSpace=wrap;html=1;" vertex="1" parent="1">
          <mxGeometry x="590" y="530" width="120" height="60" as="geometry" />
        </mxCell>
        <mxCell id="xL_IqbiLZLGs2kssdecv-35" style="edgeStyle=orthogonalEdgeStyle;rounded=0;orthogonalLoop=1;jettySize=auto;html=1;exitX=0;exitY=0.75;exitDx=0;exitDy=0;" edge="1" parent="1" source="xL_IqbiLZLGs2kssdecv-28">
          <mxGeometry relative="1" as="geometry">
            <mxPoint x="421" y="167" as="targetPoint" />
            <Array as="points">
              <mxPoint x="526" y="165" />
              <mxPoint x="526" y="167" />
            </Array>
          </mxGeometry>
        </mxCell>
        <mxCell id="xL_IqbiLZLGs2kssdecv-28" value="Seed Node&lt;br&gt;1.0.0.1" style="rounded=0;whiteSpace=wrap;html=1;" vertex="1" parent="1">
          <mxGeometry x="630" y="120" width="120" height="60" as="geometry" />
        </mxCell>
        <mxCell id="xL_IqbiLZLGs2kssdecv-32" style="edgeStyle=orthogonalEdgeStyle;rounded=0;orthogonalLoop=1;jettySize=auto;html=1;exitX=1;exitY=0.5;exitDx=0;exitDy=0;entryX=0;entryY=0.25;entryDx=0;entryDy=0;" edge="1" parent="1" source="xL_IqbiLZLGs2kssdecv-29" target="xL_IqbiLZLGs2kssdecv-28">
          <mxGeometry relative="1" as="geometry" />
        </mxCell>
        <mxCell id="xL_IqbiLZLGs2kssdecv-34" value="GetALL" style="edgeLabel;html=1;align=center;verticalAlign=middle;resizable=0;points=[];" vertex="1" connectable="0" parent="xL_IqbiLZLGs2kssdecv-32">
          <mxGeometry x="-0.0381" y="-3" relative="1" as="geometry">
            <mxPoint as="offset" />
          </mxGeometry>
        </mxCell>
        <mxCell id="xL_IqbiLZLGs2kssdecv-29" value="Client" style="rounded=0;whiteSpace=wrap;html=1;" vertex="1" parent="1">
          <mxGeometry x="240" y="90" width="180" height="90" as="geometry" />
        </mxCell>
        <mxCell id="xL_IqbiLZLGs2kssdecv-30" value="SeedNodes&lt;br&gt;1.0.0.1&lt;br&gt;1.0.0.2" style="ellipse;whiteSpace=wrap;html=1;" vertex="1" parent="1">
          <mxGeometry x="370" y="60" width="90" height="70" as="geometry" />
        </mxCell>
        <mxCell id="xL_IqbiLZLGs2kssdecv-36" value="&lt;span style=&quot;font-size: 11px ; background-color: rgb(255 , 255 , 255)&quot;&gt;1.0.0.1&lt;/span&gt;&lt;br style=&quot;font-size: 11px&quot;&gt;&lt;span style=&quot;font-size: 11px ; background-color: rgb(255 , 255 , 255)&quot;&gt;1.0.0.2&lt;/span&gt;&lt;br style=&quot;font-size: 11px&quot;&gt;&lt;span style=&quot;font-size: 11px ; background-color: rgb(255 , 255 , 255)&quot;&gt;1.0.0.3&lt;/span&gt;&lt;br style=&quot;font-size: 11px&quot;&gt;&lt;span style=&quot;font-size: 11px ; background-color: rgb(255 , 255 , 255)&quot;&gt;1.0.0.4&lt;/span&gt;" style="text;html=1;align=center;verticalAlign=middle;resizable=0;points=[];autosize=1;" vertex="1" parent="1">
          <mxGeometry x="495" y="170" width="50" height="70" as="geometry" />
        </mxCell>
      </root>
    </mxGraphModel>
  </diagram>
</mxfile>
